# xmcd
#
# Track frame offsets:
#   150
#   12305
#   25872
#   41480
#   52505
#   69562
#   80260
#   97090
#   117477
#   133440
#   150387
#   163384
#   180937
#   194177
#   207032
#   220482
#   235927
#   253822
#   268290
#   287222
#
# Disc length: 3994 seconds
#
# Revision: 0
# Processed by: cddbd v1.5.1PL0 Copyright (c) Steve Scherf et al.
# Submitted via: uFREEDB ActiveX Control 1.5
#
DISCID=2c0f9814
DTITLE=20 sertanejas preferidas - 20 Sertanejas preferidas
DYEAR=1900
DGENRE=Country
TTITLE0=Amor com amor se paga
TTITLE1=O papa tudo
TTITLE2=Pra conviver com essa cabeça
TTITLE3=O chorão
TTITLE4=Mais que paixão
TTITLE5=Andorinha mensageira
TTITLE6=Canga do tempo
TTITLE7=Lua e flor
TTITLE8=Viagem
TTITLE9=Caminhos
TTITLE10=Cai da cama
TTITLE11=Dono de tudo
TTITLE12=Quebradas da noite
TTITLE13=Passando a mão ( Te O Sawaru)
TTITLE14=De novo em teus braços
TTITLE15=India
TTITLE16=Caminhoneiro do amor
TTITLE17=Pagonejo
TTITLE18=Cowboy da madrugada
TTITLE19=Festa do peão
EXTD=
EXTT0=
EXTT1=
EXTT2=
EXTT3=
EXTT4=
EXTT5=
EXTT6=
EXTT7=
EXTT8=
EXTT9=
EXTT10=
EXTT11=
EXTT12=
EXTT13=
EXTT14=
EXTT15=
EXTT16=
EXTT17=
EXTT18=
EXTT19=
PLAYORDER=
